<svg width="117" height="36" viewBox="0 0 117 36" fill="none" xmlns="http://www.w3.org/2000/svg">
<path d="M55.2672 7.20279L52.9014 15.671H50.8996L49.3103 9.64134L47.6482 15.671L45.6586 15.6831L43.3777 7.20279H45.1976L46.6898 13.7784L48.4126 7.20279H50.3052L51.9309 13.742L53.4353 7.20279H55.2672ZM58.0747 9.99317C58.2931 9.63729 58.5762 9.35825 58.924 9.15605C59.2799 8.95385 59.6843 8.85275 60.1372 8.85275V10.6362H59.6883C59.1545 10.6362 58.7501 10.7615 58.4751 11.0123C58.2082 11.263 58.0747 11.6997 58.0747 12.3225V15.671H56.3762V8.94981H58.0747V9.99317ZM62.1426 8.14909C61.8433 8.14909 61.5926 8.05608 61.3904 7.87005C61.1963 7.67594 61.0992 7.43734 61.0992 7.15426C61.0992 6.87117 61.1963 6.63662 61.3904 6.45059C61.5926 6.25648 61.8433 6.15942 62.1426 6.15942C62.4419 6.15942 62.6885 6.25648 62.8827 6.45059C63.0849 6.63662 63.186 6.87117 63.186 7.15426C63.186 7.43734 63.0849 7.67594 62.8827 7.87005C62.6885 8.05608 62.4419 8.14909 62.1426 8.14909ZM62.9797 8.94981V15.671H61.2812V8.94981H62.9797ZM66.6354 10.345V13.5964C66.6354 13.8229 66.6879 13.9887 66.7931 14.0938C66.9063 14.1909 67.0923 14.2394 67.3512 14.2394H68.1397V15.671H67.0721C65.6405 15.671 64.9247 14.9754 64.9247 13.5843V10.345H64.124V8.94981H64.9247V7.28771H66.6354V8.94981H68.1397V10.345H66.6354ZM75.6094 12.1648C75.6094 12.4075 75.5932 12.6258 75.5609 12.8199H70.6474C70.6878 13.3052 70.8577 13.6854 71.1569 13.9604C71.4562 14.2354 71.8242 14.3729 72.261 14.3729C72.8918 14.3729 73.3407 14.1019 73.6076 13.56H75.4396C75.2455 14.2071 74.8734 14.7409 74.3234 15.1614C73.7734 15.5739 73.0981 15.7802 72.2974 15.7802C71.6503 15.7802 71.068 15.6386 70.5503 15.3556C70.0408 15.0644 69.6404 14.6559 69.3493 14.1302C69.0662 13.6045 68.9246 12.9979 68.9246 12.3104C68.9246 11.6148 69.0662 11.0042 69.3493 10.4785C69.6323 9.95273 70.0286 9.54832 70.5382 9.26524C71.0477 8.98216 71.6341 8.84062 72.2974 8.84062C72.9363 8.84062 73.5065 8.97812 74.008 9.25311C74.5175 9.5281 74.9098 9.92038 75.1848 10.4299C75.4679 10.9314 75.6094 11.5097 75.6094 12.1648ZM73.8503 11.6795C73.8422 11.2428 73.6845 10.895 73.3771 10.6362C73.0698 10.3693 72.6937 10.2358 72.2488 10.2358C71.8282 10.2358 71.4724 10.3652 71.1812 10.624C70.8981 10.8748 70.7242 11.2266 70.6595 11.6795H73.8503ZM79.3033 12.2861C79.3033 11.6067 79.4367 11.0042 79.7036 10.4785C79.9786 9.95273 80.3466 9.54832 80.8076 9.26524C81.2767 8.98216 81.7984 8.84062 82.3727 8.84062C82.8741 8.84062 83.3109 8.94172 83.6829 9.14392C84.0631 9.34612 84.3664 9.6009 84.5929 9.90824V8.94981H86.3035V15.671H84.5929V14.6883C84.3745 15.0037 84.0712 15.2666 83.6829 15.4769C83.3028 15.6791 82.862 15.7802 82.3605 15.7802C81.7944 15.7802 81.2767 15.6346 80.8076 15.3434C80.3466 15.0523 79.9786 14.6438 79.7036 14.1181C79.4367 13.5843 79.3033 12.9736 79.3033 12.2861ZM84.5929 12.3104C84.5929 11.8979 84.512 11.5461 84.3502 11.2549C84.1885 10.9556 83.9701 10.7292 83.6951 10.5755C83.4201 10.4137 83.1249 10.3329 82.8094 10.3329C82.494 10.3329 82.2028 10.4097 81.9359 10.5634C81.669 10.717 81.4506 10.9435 81.2808 11.2428C81.119 11.5339 81.0382 11.8817 81.0382 12.2861C81.0382 12.6905 81.119 13.0464 81.2808 13.3538C81.4506 13.653 81.669 13.8835 81.9359 14.0453C82.2109 14.2071 82.5021 14.2879 82.8094 14.2879C83.1249 14.2879 83.4201 14.2111 83.6951 14.0574C83.9701 13.8957 84.1885 13.6692 84.3502 13.378C84.512 13.0788 84.5929 12.7229 84.5929 12.3104ZM91.6869 8.85275C92.4876 8.85275 93.1347 9.10752 93.628 9.61707C94.1214 10.1185 94.3681 10.8222 94.3681 11.7281V15.671H92.6696V11.9586C92.6696 11.4248 92.5362 11.0163 92.2692 10.7332C92.0023 10.4421 91.6384 10.2965 91.1774 10.2965C90.7082 10.2965 90.3362 10.4421 90.0612 10.7332C89.7943 11.0163 89.6608 11.4248 89.6608 11.9586V15.671H87.9624V8.94981H89.6608V9.78692C89.8873 9.49575 90.1744 9.26929 90.5222 9.10752C90.8781 8.93768 91.2663 8.85275 91.6869 8.85275ZM49.1405 27.0574H45.7678L45.2097 28.671H43.4263L46.4714 20.1907H48.449L51.4941 28.671H49.6986L49.1405 27.0574ZM48.6795 25.6986L47.4541 22.1561L46.2288 25.6986H48.6795ZM54.3309 22.9932C54.5492 22.6373 54.8323 22.3583 55.1801 22.1561C55.536 21.9539 55.9404 21.8528 56.3933 21.8528V23.6362H55.9444C55.4106 23.6362 55.0062 23.7615 54.7312 24.0123C54.4643 24.263 54.3309 24.6997 54.3309 25.3225V28.671H52.6324V21.9498H54.3309V22.9932ZM59.5149 23.345V26.5964C59.5149 26.8229 59.5674 26.9887 59.6726 27.0938C59.7858 27.1909 59.9718 27.2394 60.2307 27.2394H61.0192V28.671H59.9516C58.52 28.671 57.8042 27.9754 57.8042 26.5843V23.345H57.0035V21.9498H57.8042V20.2877H59.5149V21.9498H61.0192V23.345H59.5149ZM63.1023 21.1491C62.803 21.1491 62.5523 21.0561 62.3501 20.8701C62.156 20.6759 62.0589 20.4373 62.0589 20.1543C62.0589 19.8712 62.156 19.6366 62.3501 19.4506C62.5523 19.2565 62.803 19.1594 63.1023 19.1594C63.4015 19.1594 63.6482 19.2565 63.8423 19.4506C64.0445 19.6366 64.1456 19.8712 64.1456 20.1543C64.1456 20.4373 64.0445 20.6759 63.8423 20.8701C63.6482 21.0561 63.4015 21.1491 63.1023 21.1491ZM63.9394 21.9498V28.671H62.2409V21.9498H63.9394ZM65.1807 25.3104C65.1807 24.6148 65.3223 24.0082 65.6054 23.4906C65.8884 22.9649 66.2807 22.5605 66.7822 22.2774C67.2836 21.9862 67.8579 21.8406 68.5049 21.8406C69.338 21.8406 70.0255 22.0509 70.5674 22.4715C71.1174 22.884 71.4854 23.4663 71.6714 24.2185H69.8395C69.7424 23.9273 69.5766 23.7009 69.342 23.5391C69.1156 23.3693 68.8325 23.2843 68.4928 23.2843C68.0075 23.2843 67.6233 23.4623 67.3403 23.8182C67.0572 24.1659 66.9156 24.6634 66.9156 25.3104C66.9156 25.9494 67.0572 26.4468 67.3403 26.8026C67.6233 27.1504 68.0075 27.3243 68.4928 27.3243C69.1803 27.3243 69.6292 27.017 69.8395 26.4023H71.6714C71.4854 27.1302 71.1174 27.7085 70.5674 28.1372C70.0174 28.5658 69.3299 28.7802 68.5049 28.7802C67.8579 28.7802 67.2836 28.6386 66.7822 28.3556C66.2807 28.0644 65.8884 27.66 65.6054 27.1423C65.3223 26.6166 65.1807 26.006 65.1807 25.3104ZM74.6142 19.6932V28.671H72.9157V19.6932H74.6142ZM82.5403 25.1648C82.5403 25.4075 82.5242 25.6258 82.4918 25.8199H77.5783C77.6188 26.3052 77.7886 26.6854 78.0879 26.9604C78.3871 27.2354 78.7551 27.3729 79.1919 27.3729C79.8228 27.3729 80.2716 27.1019 80.5386 26.56H82.3705C82.1764 27.2071 81.8043 27.7409 81.2543 28.1614C80.7044 28.5739 80.029 28.7802 79.2283 28.7802C78.5812 28.7802 77.9989 28.6386 77.4813 28.3556C76.9717 28.0644 76.5714 27.6559 76.2802 27.1302C75.9971 26.6045 75.8556 25.9979 75.8556 25.3104C75.8556 24.6148 75.9971 24.0042 76.2802 23.4785C76.5633 22.9527 76.9596 22.5483 77.4691 22.2652C77.9787 21.9822 78.5651 21.8406 79.2283 21.8406C79.8672 21.8406 80.4375 21.9781 80.9389 22.2531C81.4485 22.5281 81.8407 22.9204 82.1157 23.4299C82.3988 23.9314 82.5403 24.5097 82.5403 25.1648ZM80.7812 24.6795C80.7731 24.2428 80.6154 23.895 80.308 23.6362C80.0007 23.3693 79.6246 23.2358 79.1798 23.2358C78.7592 23.2358 78.4033 23.3652 78.1121 23.624C77.8291 23.8748 77.6552 24.2266 77.5905 24.6795H80.7812ZM84.5323 28.7559C84.2249 28.7559 83.9702 28.6629 83.768 28.4769C83.5739 28.2828 83.4768 28.0442 83.4768 27.7611C83.4768 27.478 83.5739 27.2434 83.768 27.0574C83.9702 26.8633 84.2249 26.7663 84.5323 26.7663C84.8315 26.7663 85.0782 26.8633 85.2723 27.0574C85.4665 27.2434 85.5635 27.478 85.5635 27.7611C85.5635 28.0442 85.4665 28.2828 85.2723 28.4769C85.0782 28.6629 84.8315 28.7559 84.5323 28.7559Z" fill="#006D77"/>
<g clip-path="url(#clip0_413_465)">
<path d="M35.4787 13.4798L33.7596 11.7607C32.9566 10.9576 31.65 10.9578 30.8469 11.7607L27.2259 15.3818V3.74313C27.2259 2.03968 25.84 0.653809 24.1366 0.653809H4.02169C2.31824 0.653809 0.932373 2.03968 0.932373 3.74313V32.7141C0.932373 34.4175 2.31824 35.8034 4.02169 35.8034H24.1366C25.84 35.8034 27.2259 34.4175 27.2259 32.7141V24.5423L35.4787 16.3925C36.2817 15.5895 36.2817 14.2828 35.4787 13.4798ZM23.1627 25.6602L20.065 27.1059L21.5092 24.0112L29.1965 16.3239L30.8961 18.0235L23.1627 25.6602ZM25.1664 32.7141C25.1664 33.2819 24.7044 33.7438 24.1366 33.7438H4.02169C3.45387 33.7438 2.99192 33.2819 2.99192 32.7141V3.74313C2.99192 3.17531 3.45387 2.71335 4.02169 2.71335H24.1366C24.7044 2.71335 25.1664 3.17531 25.1664 3.74313V17.4413C19.456 23.1517 19.8289 22.7414 19.7195 22.9757L17.0011 28.8011C16.818 29.1935 16.8999 29.6585 17.2061 29.9647C17.5123 30.271 17.9774 30.3528 18.3697 30.1697L24.1951 27.4512C24.4086 27.3515 24.4438 27.2896 25.1664 26.576V32.7141ZM32.3614 16.5764L30.6527 14.8676L32.3033 13.217L34.0218 14.9367L32.3614 16.5764Z" fill="#006D77"/>
<path d="M6.42382 9.37287H21.8017C22.3705 9.37287 22.8315 8.91181 22.8315 8.3431C22.8315 7.77439 22.3705 7.31332 21.8017 7.31332H6.42382C5.85511 7.31332 5.39404 7.77439 5.39404 8.3431C5.39404 8.91181 5.85511 9.37287 6.42382 9.37287Z" fill="#006D77"/>
<path d="M6.42381 14.8645H18.5065C19.0752 14.8645 19.5362 14.4035 19.5362 13.8348C19.5362 13.2661 19.0752 12.805 18.5065 12.805H6.42381C5.85511 12.805 5.39404 13.2661 5.39404 13.8348C5.39404 14.4035 5.85511 14.8645 6.42381 14.8645Z" fill="#006D77"/>
<path d="M15.2112 18.2972H6.42382C5.85511 18.2972 5.39404 18.7583 5.39404 19.327C5.39404 19.8957 5.85511 20.3568 6.42382 20.3568H15.2112C15.7799 20.3568 16.241 19.8957 16.241 19.327C16.241 18.7583 15.7799 18.2972 15.2112 18.2972Z" fill="#006D77"/>
</g>
<defs>
<clipPath id="clip0_413_465">
<rect width="35.1496" height="35.1496" fill="white" transform="translate(0.931519 0.653809)"/>
</clipPath>
</defs>
</svg>
