<svg width="131" height="41" viewBox="0 0 131 41" fill="none" xmlns="http://www.w3.org/2000/svg">
<path d="M59.3838 13.9507L57.018 22.4189H55.0162L53.4269 16.3893L51.7648 22.4189L49.7752 22.4311L47.4943 13.9507H49.3141L50.8064 20.5263L52.5291 13.9507H54.4218L56.0475 20.4899L57.5518 13.9507H59.3838ZM60.0561 19.0341C60.0561 18.3547 60.1895 17.7521 60.4564 17.2264C60.7314 16.7007 61.0994 16.2963 61.5604 16.0132C62.0296 15.7301 62.5512 15.5886 63.1255 15.5886C63.6269 15.5886 64.0637 15.6897 64.4358 15.8919C64.8159 16.0941 65.1192 16.3489 65.3457 16.6562V15.6978H67.0563V22.4189H65.3457V21.4362C65.1273 21.7517 64.824 22.0145 64.4358 22.2248C64.0556 22.427 63.6148 22.5281 63.1134 22.5281C62.5472 22.5281 62.0296 22.3825 61.5604 22.0914C61.0994 21.8002 60.7314 21.3918 60.4564 20.866C60.1895 20.3322 60.0561 19.7216 60.0561 19.0341ZM65.3457 19.0584C65.3457 18.6459 65.2648 18.294 65.103 18.0029C64.9413 17.7036 64.7229 17.4771 64.4479 17.3235C64.1729 17.1617 63.8777 17.0808 63.5622 17.0808C63.2468 17.0808 62.9556 17.1577 62.6887 17.3113C62.4218 17.465 62.2034 17.6915 62.0336 17.9907C61.8718 18.2819 61.791 18.6297 61.791 19.0341C61.791 19.4385 61.8718 19.7944 62.0336 20.1017C62.2034 20.401 62.4218 20.6315 62.6887 20.7932C62.9637 20.955 63.2549 21.0359 63.5622 21.0359C63.8777 21.0359 64.1729 20.959 64.4479 20.8054C64.7229 20.6436 64.9413 20.4171 65.103 20.126C65.2648 19.8267 65.3457 19.4708 65.3457 19.0584ZM70.6927 17.093V20.3444C70.6927 20.5708 70.7453 20.7366 70.8504 20.8418C70.9636 20.9388 71.1497 20.9874 71.4085 20.9874H72.1971V22.4189H71.1295C69.6979 22.4189 68.9821 21.7234 68.9821 20.3322V17.093H68.1814V15.6978H68.9821V14.0357H70.6927V15.6978H72.1971V17.093H70.6927ZM72.982 19.0584C72.982 18.3628 73.1235 17.7562 73.4066 17.2385C73.6897 16.7128 74.0819 16.3084 74.5834 16.0253C75.0849 15.7342 75.6591 15.5886 76.3062 15.5886C77.1392 15.5886 77.8267 15.7989 78.3686 16.2194C78.9186 16.6319 79.2866 17.2143 79.4726 17.9665H77.6407C77.5436 17.6753 77.3778 17.4488 77.1433 17.2871C76.9168 17.1172 76.6337 17.0323 76.294 17.0323C75.8087 17.0323 75.4246 17.2102 75.1415 17.5661C74.8584 17.9139 74.7169 18.4113 74.7169 19.0584C74.7169 19.6973 74.8584 20.1947 75.1415 20.5506C75.4246 20.8984 75.8087 21.0723 76.294 21.0723C76.9815 21.0723 77.4304 20.7649 77.6407 20.1502H79.4726C79.2866 20.8782 78.9186 21.4565 78.3686 21.8851C77.8186 22.3138 77.1311 22.5281 76.3062 22.5281C75.6591 22.5281 75.0849 22.3866 74.5834 22.1035C74.0819 21.8123 73.6897 21.4079 73.4066 20.8903C73.1235 20.3646 72.982 19.7539 72.982 19.0584ZM84.5022 15.6007C85.0117 15.6007 85.4646 15.7139 85.8609 15.9404C86.2573 16.1588 86.5646 16.4863 86.783 16.9231C87.0095 17.3518 87.1227 17.8694 87.1227 18.476V22.4189H85.4242V18.7065C85.4242 18.1727 85.2907 17.7643 85.0238 17.4812C84.7569 17.19 84.393 17.0444 83.9319 17.0444C83.4628 17.0444 83.0908 17.19 82.8158 17.4812C82.5489 17.7643 82.4154 18.1727 82.4154 18.7065V22.4189H80.7169V13.4412H82.4154V16.5349C82.6338 16.2437 82.925 16.0172 83.2889 15.8555C83.6529 15.6856 84.0573 15.6007 84.5022 15.6007ZM49.763 34.0723H52.5534V35.4189H48.0645V26.9507H49.763V34.0723ZM54.4944 27.897C54.1951 27.897 53.9444 27.804 53.7422 27.618C53.5481 27.4239 53.451 27.1853 53.451 26.9022C53.451 26.6191 53.5481 26.3846 53.7422 26.1986C53.9444 26.0044 54.1951 25.9074 54.4944 25.9074C54.7936 25.9074 55.0403 26.0044 55.2344 26.1986C55.4366 26.3846 55.5377 26.6191 55.5377 26.9022C55.5377 27.1853 55.4366 27.4239 55.2344 27.618C55.0403 27.804 54.7936 27.897 54.4944 27.897ZM55.3315 28.6978V35.4189H53.633V28.6978H55.3315ZM59.8121 33.8539L61.5106 28.6978H63.3183L60.8312 35.4189H58.7687L56.2938 28.6978H58.1136L59.8121 33.8539ZM70.5203 31.9128C70.5203 32.1554 70.5041 32.3738 70.4718 32.5679H65.5583C65.5987 33.0532 65.7685 33.4333 66.0678 33.7083C66.3671 33.9833 66.7351 34.1208 67.1718 34.1208C67.8027 34.1208 68.2516 33.8499 68.5185 33.308H70.3504C70.1563 33.955 69.7843 34.4888 69.2343 34.9094C68.6843 35.3219 68.0089 35.5281 67.2082 35.5281C66.5612 35.5281 65.9788 35.3866 65.4612 35.1035C64.9517 34.8123 64.5513 34.4039 64.2601 33.8782C63.977 33.3524 63.8355 32.7458 63.8355 32.0584C63.8355 31.3628 63.977 30.7521 64.2601 30.2264C64.5432 29.7007 64.9395 29.2963 65.4491 29.0132C65.9586 28.7301 66.545 28.5886 67.2082 28.5886C67.8472 28.5886 68.4174 28.7261 68.9189 29.0011C69.4284 29.2761 69.8207 29.6683 70.0957 30.1779C70.3787 30.6793 70.5203 31.2576 70.5203 31.9128ZM68.7611 31.4275C68.753 30.9907 68.5953 30.6429 68.288 30.3841C67.9806 30.1172 67.6045 29.9838 67.1597 29.9838C66.7391 29.9838 66.3832 30.1132 66.0921 30.372C65.809 30.6227 65.6351 30.9746 65.5704 31.4275H68.7611ZM80.4136 26.9507V28.3217H78.1571V35.4189H76.4586V28.3217H74.202V26.9507H80.4136ZM89.2597 26.9507L86.1539 35.4189H84.0915L80.9856 26.9507H82.8055L85.1348 33.6841L87.4521 26.9507H89.2597ZM100.193 26.9507V35.4189H98.4949V31.8157H94.8674V35.4189H93.1689V26.9507H94.8674V30.4327H98.4949V26.9507H100.193ZM108.113 31.9128C108.113 32.1554 108.097 32.3738 108.065 32.5679H103.151C103.192 33.0532 103.361 33.4333 103.661 33.7083C103.96 33.9833 104.328 34.1208 104.765 34.1208C105.396 34.1208 105.845 33.8499 106.111 33.308H107.943C107.749 33.955 107.377 34.4888 106.827 34.9094C106.277 35.3219 105.602 35.5281 104.801 35.5281C104.154 35.5281 103.572 35.3866 103.054 35.1035C102.545 34.8123 102.144 34.4039 101.853 33.8782C101.57 33.3524 101.428 32.7458 101.428 32.0584C101.428 31.3628 101.57 30.7521 101.853 30.2264C102.136 29.7007 102.532 29.2963 103.042 29.0132C103.552 28.7301 104.138 28.5886 104.801 28.5886C105.44 28.5886 106.01 28.7261 106.512 29.0011C107.021 29.2761 107.414 29.6683 107.689 30.1779C107.972 30.6793 108.113 31.2576 108.113 31.9128ZM106.354 31.4275C106.346 30.9907 106.188 30.6429 105.881 30.3841C105.574 30.1172 105.197 29.9838 104.753 29.9838C104.332 29.9838 103.976 30.1132 103.685 30.372C103.402 30.6227 103.228 30.9746 103.163 31.4275H106.354ZM111.051 29.7411C111.27 29.3852 111.553 29.1062 111.901 28.904C112.257 28.7018 112.661 28.6007 113.114 28.6007V30.3841H112.665C112.131 30.3841 111.727 30.5095 111.452 30.7602C111.185 31.0109 111.051 31.4477 111.051 32.0705V35.4189H109.353V28.6978H111.051V29.7411ZM120.506 31.9128C120.506 32.1554 120.49 32.3738 120.457 32.5679H115.544C115.584 33.0532 115.754 33.4333 116.053 33.7083C116.353 33.9833 116.721 34.1208 117.157 34.1208C117.788 34.1208 118.237 33.8499 118.504 33.308H120.336C120.142 33.955 119.77 34.4888 119.22 34.9094C118.67 35.3219 117.995 35.5281 117.194 35.5281C116.547 35.5281 115.965 35.3866 115.447 35.1035C114.937 34.8123 114.537 34.4039 114.246 33.8782C113.963 33.3524 113.821 32.7458 113.821 32.0584C113.821 31.3628 113.963 30.7521 114.246 30.2264C114.529 29.7007 114.925 29.2963 115.435 29.0132C115.944 28.7301 116.531 28.5886 117.194 28.5886C117.833 28.5886 118.403 28.7261 118.905 29.0011C119.414 29.2761 119.806 29.6683 120.081 30.1779C120.364 30.6793 120.506 31.2576 120.506 31.9128ZM118.747 31.4275C118.739 30.9907 118.581 30.6429 118.274 30.3841C117.966 30.1172 117.59 29.9838 117.145 29.9838C116.725 29.9838 116.369 30.1132 116.078 30.372C115.795 30.6227 115.621 30.9746 115.556 31.4275H118.747ZM122.498 35.5039C122.191 35.5039 121.936 35.4109 121.734 35.2248C121.539 35.0307 121.442 34.7921 121.442 34.509C121.442 34.226 121.539 33.9914 121.734 33.8054C121.936 33.6113 122.191 33.5142 122.498 33.5142C122.797 33.5142 123.044 33.6113 123.238 33.8054C123.432 33.9914 123.529 34.226 123.529 34.509C123.529 34.7921 123.432 35.0307 123.238 35.2248C123.044 35.4109 122.797 35.5039 122.498 35.5039Z" fill="#006D77"/>
<path fill-rule="evenodd" clip-rule="evenodd" d="M5.96033 4.76651C6.45056 4.27628 7.24541 4.27628 7.73565 4.76651L11.8694 8.90021L16.0031 4.76651C16.4933 4.27628 17.2881 4.27628 17.7783 4.76651C18.2686 5.25675 18.2686 6.05159 17.7783 6.54183L12.757 11.5632C12.2668 12.0534 11.4719 12.0534 10.9817 11.5632L5.96033 6.54183C5.47009 6.05159 5.47009 5.25675 5.96033 4.76651Z" fill="#486472"/>
<path d="M6.8495 9.41989C4.30738 9.41989 2.24658 11.4807 2.24658 14.0228V34.1083C2.24658 36.6504 4.30738 38.7112 6.8495 38.7112H33.6301C36.1723 38.7112 38.2331 36.6504 38.2331 34.1083V14.0228C38.2331 11.4807 36.1723 9.41989 33.6301 9.41989H6.8495Z" fill="#FAFAFA"/>
<path fill-rule="evenodd" clip-rule="evenodd" d="M2.24658 14.0228C2.24658 11.4807 4.30738 9.41989 6.8495 9.41989H33.6301C36.1723 9.41989 38.2331 11.4807 38.2331 14.0228V34.1083C38.2331 36.6504 36.1723 38.7112 33.6301 38.7112H6.8495C4.30738 38.7112 2.24658 36.6504 2.24658 34.1083V14.0228ZM6.8495 11.9306C5.69399 11.9306 4.75727 12.8673 4.75727 14.0228V34.1083C4.75727 35.2639 5.69399 36.2005 6.8495 36.2005H33.6301C34.7857 36.2005 35.7224 35.2639 35.7224 34.1083V14.0228C35.7224 12.8673 34.7857 11.9306 33.6301 11.9306H6.8495Z" fill="#607D8B"/>
<path d="M17.6748 16.3905C17.298 16.089 16.7817 16.0302 16.3468 16.2393C15.9119 16.4483 15.6353 16.8881 15.6353 17.3707V30.761C15.6353 31.2435 15.9119 31.6834 16.3468 31.8925C16.7817 32.1015 17.298 32.0428 17.6748 31.7413L26.0437 25.0462C26.3415 24.8078 26.5149 24.4471 26.5149 24.0658C26.5149 23.6846 26.3415 23.3239 26.0437 23.0857L17.6748 16.3905Z" fill="#F7F7F7"/>
<path fill-rule="evenodd" clip-rule="evenodd" d="M5.96184 4.76651C6.45208 4.27628 7.24693 4.27628 7.73716 4.76651L11.8709 8.90022L16.0046 4.76651C16.4948 4.27628 17.2896 4.27628 17.7798 4.76651C18.2701 5.25675 18.2701 6.0516 17.7798 6.54183L14.9015 9.4202H33.6301C36.1723 9.4202 38.2331 11.481 38.2331 14.0231V34.1086C38.2331 36.6507 36.1723 38.7115 33.6301 38.7115H6.8495C4.30738 38.7115 2.24658 36.6507 2.24658 34.1086V14.0231C2.24658 11.481 4.30738 9.4202 6.8495 9.4202H8.84021L5.96184 6.54183C5.47161 6.0516 5.47161 5.25675 5.96184 4.76651ZM6.8495 11.9309H11.8699H11.8719H33.6301C34.7857 11.9309 35.7224 12.8676 35.7224 14.0231V34.1086C35.7224 35.2642 34.7857 36.2008 33.6301 36.2008H6.8495C5.69399 36.2008 4.75727 35.2642 4.75727 34.1086V14.0231C4.75727 12.8676 5.69399 11.9309 6.8495 11.9309ZM17.6764 16.3904C17.2996 16.089 16.7834 16.0302 16.3484 16.2392C15.9135 16.4483 15.6369 16.8881 15.6369 17.3707V30.761C15.6369 31.2436 15.9135 31.6834 16.3484 31.8925C16.7834 32.1015 17.2996 32.0428 17.6764 31.7413L26.0454 25.0462C26.3431 24.8078 26.5165 24.4471 26.5165 24.0659C26.5165 23.6846 26.3431 23.3239 26.0454 23.0855L17.6764 16.3904ZM23.2516 24.0659L18.1476 28.1491V19.9826L23.2516 24.0659Z" fill="#006D77"/>
</svg>
